#!OML:ASF H:\MichaelJackson\Top Level 1\Subject 1\Session 1\male.ASF
:FULLY-SPECIFIED
:DEGREES
988
root 4.19119 16.7389 34.9763 -2.76496 35.1413 -6.83467
lowerback 11.6528 -2.33822 -7.89752
upperback 3.20322 -3.96519 0.035287
thorax -2.60709 -1.94313 5.00259
lowerneck -2.48736 -11.3896 -3.90427
upperneck -1.17168 -15.2555 11.8304
head 1.405 -7.57184 4.08547
rclavicle 5.725e-014 -3.02153e-014
rhumerus -50.1412 -17.9048 -69.8028
rradius 82.7276
rwrist -10.8696
rhand -41.2737 -55.6478
rfingers 7.12502
rthumb -14.1954 -445.143
lclavicle 5.725e-014 -3.02153e-014
lhumerus -30.3598 -30.2275 91.4503
lradius 69.15
lwrist 10.1731
lhand 21.3849 18.3354
lfingers 7.12502
lthumb 45.823 41.5032
rfemur -54.4316 -30.9895 16.1404
rtibia 111.092
rfoot 28.0767 2.04606
rtoes 15.0494
lfemur -22.479 15.9141 -15.2919
ltibia 43.7804
lfoot -23.4171 -12.2016
ltoes 6.04345
989
root 4.17201 16.7361 35.0368 -2.41445 36.1311 -7.06136
lowerback 10.8419 -2.51528 -7.74491
upperback 2.90906 -4.13074 0.0523157
thorax -2.4589 -2.02643 4.91379
lowerneck -2.51422 -11.5897 -4.03163
upperneck -1.04321 -15.5375 11.9327
head 1.49786 -7.70628 4.11928
rclavicle -5.725e-014 2.38542e-014
rhumerus -50.0312 -17.1688 -70.7603
rradius 83.5411
rwrist -11.8486
rhand -39.4861 -51.9201
rfingers 7.12502
rthumb -12.4724 -441.528
lclavicle -5.725e-014 2.38542e-014
lhumerus -31.3717 -31.7643 92.6027
lradius 69.4854
lwrist 10.5504
lhand 22.5368 19.0579
lfingers 7.12502
lthumb 46.8906 41.7721
rfemur -50.4496 -29.3293 14.6115
rtibia 107.749
rfoot 26.6004 -2.25448
rtoes 19.2997
lfemur -23.1499 16.1532 -15.1712
ltibia 43.9702
lfoot -23.5842 -11.5542
ltoes 4.9229
990
root 4.15412 16.7291 35.097 -2.06304 37.0112 -7.21265
lowerback 10.0664 -2.66456 -7.61569
upperback 2.6237 -4.26751 0.0351628
thorax -2.32433 -2.09479 4.79853
lowerneck -2.53366 -11.7751 -4.16876
upperneck -0.956004 -15.7957 12.0256
head 1.57458 -7.83028 4.15411
rclavicle 3.4191e-014 7.95139e-015
rhumerus -49.922 -16.2684 -71.758
rradius 84.3406
rwrist -12.4357
rhand -37.2 -48.0783
rfingers 7.12502
rthumb -10.2676 -437.808
lclavicle 3.4191e-014 7.95139e-015
lhumerus -32.3972 -33.2105 93.7389
lradius 69.7165
lwrist 10.9622
lhand 23.6719 19.7876
lfingers 7.12502
lthumb 47.9391 42.0288
rfemur -46.6813 -27.6425 13.3398
rtibia 104.254
rfoot 24.7669 -6.88736
rtoes 23.9654
lfemur -23.7915 16.4549 -15.0858
ltibia 44.2158
lfoot -23.7408 -11.0924
ltoes 4.19354
991
root 4.13735 16.7184 35.1559 -1.70022 37.7596 -7.28491
lowerback 9.32524 -2.78493 -7.50525
upperback 2.34613 -4.37256 -0.0165574
thorax -2.2049 -2.14665 4.65473
lowerneck -2.54629 -11.9393 -4.30851
upperneck -0.908093 -16.0212 12.1008
head 1.63338 -7.93949 4.18654
rclavicle -6.97734e-014 -7.95139e-015
rhumerus -49.8023 -15.2128 -72.8002
rradius 85.1203
rwrist -12.6998
rhand -34.6232 -44.1975
rfingers 7.12502
rthumb -7.7811 -434.034
lclavicle -6.97734e-014 -7.95139e-015
lhumerus -33.431 -34.5474 94.8552
lradius 69.8438
lwrist 11.3969
lhand 24.7744 20.5182
lfingers 7.12502
lthumb 48.9539 42.2733
rfemur -43.127 -25.9711 12.2693
rtibia 100.629
rfoot 22.5061 -11.5953
rtoes 29.0738
lfemur -24.4024 16.8127 -15.0431
ltibia 44.5014
lfoot -23.8854 -10.8451
ltoes 3.86205
992
root 4.12171 16.705 35.2134 -1.3192 38.3669 -7.27531
lowerback 8.60702 -2.878 -7.41672
upperback 2.08021 -4.44621 -0.0991606
thorax -2.08977 -2.18274 4.48814
lowerneck -2.55772 -12.0792 -4.44964
upperneck -0.893742 -16.2101 12.1519
head 1.67573 -8.0316 4.2141
rclavicle 1.74931e-014 3.02153e-014
rhumerus -49.663 -14.0173 -73.8867
rradius 85.8791
rwrist -12.6863
rhand -31.9514 -40.4196
rfingers 7.12502
rthumb -5.20184 -430.336
lclavicle 1.74931e-014 3.02153e-014
lhumerus -34.4654 -35.7579 95.948
lradius 69.879
lwrist 11.8188
lhand 25.9005 21.2792
lfingers 7.12502
lthumb 49.9866 42.509
rfemur -39.7673 -24.3529 11.3431
rtibia 96.9013
rfoot 19.7827 -16.0179
rtoes 34.1264
lfemur -24.9734 17.2095 -15.0453
ltibia 44.8115
lfoot -24.0236 -10.8337
ltoes 3.91332
993
root 4.10696 16.6891 35.2688 -0.911934 38.7999 -7.18656
lowerback 7.90273 -2.93747 -7.34789
upperback 1.82502 -4.4784 -0.207581
thorax -1.97594 -2.19815 4.30244
lowerneck -2.55966 -12.191 -4.58873
upperneck -0.918421 -16.3565 12.1748
head 1.69679 -8.10423 4.23612
rclavicle 4.96962e-015 4.77083e-015
rhumerus -49.5001 -12.702 -75.0115
rradius 86.6172
rwrist -12.3732
rhand -29.2101 -36.8089
rfingers 7.12502
rthumb -2.55463 -426.773
lclavicle 4.96962e-015 4.77083e-015
lhumerus -35.4901 -36.831 97.017
lradius 69.8172
lwrist 12.2205
lhand 27.0366 22.0614
lfingers 7.12502
lthumb 51.0241 42.7294
rfemur -36.6101 -22.7896 10.5157
rtibia 93.1034
rfoot 16.6852 -19.8345
rtoes 38.5796
lfemur -25.5048 17.629 -15.0903
ltibia 45.1375
lfoot -24.1463 -11.0269
ltoes 4.34427
